<?xml version="1.0" encoding="UTF-8"?>
<svg xmlns="http://www.w3.org/2000/svg" version="1.1" viewBox="0 0 85 85">
  <!-- Generator: Adobe Illustrator 30.1.0, SVG Export Plug-In . SVG Version: 2.1.1 Build 136)  -->
  <defs>
    <style>
      .st0 {
        fill: #783bff;
      }

      .st1 {
        fill: #fff;
      }

      .st1, .st2 {
        mix-blend-mode: multiply;
      }

      .st1, .st2, .st3 {
        isolation: isolate;
      }

      .st4 {
        display: none;
        fill: #061117;
      }

      .st2 {
        fill: #5a96ff;
      }

      .st5 {
        fill: #57269e;
      }

      .st6 {
        fill: #961dff;
      }
    </style>
  </defs>
  <g class="st3">
    <g id="Layer_1">
      <rect class="st4" width="85" height="85"/>
      <g>
        <path class="st6" d="M71.8,20.8h0c-4.4-4.4-11.5-4.4-16,0l-18.5,18.5,16,16,18.5-18.5c4.4-4.4,4.4-11.5,0-16Z"/>
        <g>
          <polygon class="st1" points="37.1 71.5 53.3 55.2 53.3 55.2 37.1 71.5"/>
          <path class="st1" d="M31.6,33.5c-4.5-4.5-11.8-4.5-16.3,0h0c-4.5,4.5-4.5,11.8,0,16.3l5.8,5.8,16.3-16.3s-5.8-5.8-5.8-5.8Z"/>
        </g>
        <polygon class="st2" points="37.1 71.5 53.3 55.2 53.3 55.2 37.1 71.5"/>
        <path class="st0" d="M31.6,33.5c-4.5-4.5-11.8-4.5-16.3,0h0c-4.5,4.5-4.5,11.8,0,16.3l5.8,5.8,16.3-16.3s-5.8-5.8-5.8-5.8Z"/>
        <rect class="st5" x="25.7" y="44.1" width="23" height="22.6" transform="translate(-28.3 42.5) rotate(-45)"/>
      </g>
    </g>
  </g>
</svg>